<?xml version="1.0" encoding="UTF-8" standalone="no"?>
<!-- Created with Inkscape (http://www.inkscape.org/) -->

<svg
   xmlns:dc="http://purl.org/dc/elements/1.1/"
   xmlns:cc="http://creativecommons.org/ns#"
   xmlns:rdf="http://www.w3.org/1999/02/22-rdf-syntax-ns#"
   xmlns:svg="http://www.w3.org/2000/svg"
   xmlns="http://www.w3.org/2000/svg"
   xmlns:sodipodi="http://sodipodi.sourceforge.net/DTD/sodipodi-0.dtd"
   xmlns:inkscape="http://www.inkscape.org/namespaces/inkscape"
   width="210mm"
   height="297mm"
   viewBox="0 0 210 297"
   version="1.1"
   id="svg8"
   inkscape:version="0.92.3 (2405546, 2018-03-11)"
   sodipodi:docname="marca_grupo_aranza.svg"
   inkscape:export-filename="C:\Users\Monitor2\Desktop\Media General\Practica\1ro\duraznopng.png"
   inkscape:export-xdpi="96"
   inkscape:export-ydpi="96">
  <defs
     id="defs2" />
  <sodipodi:namedview
     id="base"
     pagecolor="#ffffff"
     bordercolor="#666666"
     borderopacity="1.0"
     inkscape:pageopacity="0.0"
     inkscape:pageshadow="2"
     inkscape:zoom="0.45254834"
     inkscape:cx="312.30758"
     inkscape:cy="370.13065"
     inkscape:document-units="mm"
     inkscape:current-layer="layer1"
     showgrid="false"
     inkscape:window-width="1440"
     inkscape:window-height="838"
     inkscape:window-x="-8"
     inkscape:window-y="-8"
     inkscape:window-maximized="1"
     showguides="true"
     inkscape:guide-bbox="true" />
  <metadata
     id="metadata5">
    <rdf:RDF>
      <cc:Work
         rdf:about="">
        <dc:format>image/svg+xml</dc:format>
        <dc:type
           rdf:resource="http://purl.org/dc/dcmitype/StillImage" />
        <dc:title />
      </cc:Work>
    </rdf:RDF>
  </metadata>
  <g
     inkscape:label="Capa 1"
     inkscape:groupmode="layer"
     id="layer1">
    <flowRoot
       xml:space="preserve"
       id="flowRoot30"
       style="font-style:normal;font-weight:normal;font-size:96px;line-height:1.25;font-family:sans-serif;letter-spacing:0px;word-spacing:0px;fill:#000000;fill-opacity:1;stroke:none"><flowRegion
         id="flowRegion32"><rect
           id="rect34"
           width="180"
           height="194.28572"
           x="-134.28572"
           y="-14.623172" /></flowRegion><flowPara
         id="flowPara36" /></flowRoot>    <flowRoot
       xml:space="preserve"
       id="flowRoot38"
       style="font-style:normal;font-weight:normal;font-size:96px;line-height:1.25;font-family:sans-serif;letter-spacing:0px;word-spacing:0px;fill:#000000;fill-opacity:1;stroke:none"><flowRegion
         id="flowRegion40"><rect
           id="rect42"
           width="11.428572"
           height="177.14285"
           x="-122.85714"
           y="1051.0911" /></flowRegion><flowPara
         id="flowPara44" /></flowRoot>    <flowRoot
       xml:space="preserve"
       id="flowRoot46"
       style="font-style:normal;font-weight:normal;font-size:96px;line-height:1.25;font-family:sans-serif;letter-spacing:0px;word-spacing:0px;fill:#000000;fill-opacity:1;stroke:none"><flowRegion
         id="flowRegion48"><rect
           id="rect50"
           width="42.857143"
           height="105.71429"
           x="-197.14285"
           y="1076.8054" /></flowRegion><flowPara
         id="flowPara52" /></flowRoot>    <flowRoot
       xml:space="preserve"
       id="flowRoot54"
       style="font-style:normal;font-weight:normal;font-size:96px;line-height:1.25;font-family:sans-serif;letter-spacing:0px;word-spacing:0px;fill:#000000;fill-opacity:1;stroke:none"><flowRegion
         id="flowRegion56"><rect
           id="rect58"
           width="1140"
           height="2671.4285"
           x="-722.85712"
           y="156.8054" /></flowRegion><flowPara
         id="flowPara60" /></flowRoot>    <flowRoot
       xml:space="preserve"
       id="flowRoot62"
       style="font-style:normal;font-weight:normal;font-size:96px;line-height:1.25;font-family:sans-serif;letter-spacing:0px;word-spacing:0px;fill:#000000;fill-opacity:1;stroke:none"><flowRegion
         id="flowRegion64"><rect
           id="rect66"
           width="45.714287"
           height="248.57143"
           x="360"
           y="316.80539" /></flowRegion><flowPara
         id="flowPara68" /></flowRoot>    <flowRoot
       xml:space="preserve"
       id="flowRoot70"
       style="font-style:normal;font-weight:normal;font-size:96px;line-height:1.25;font-family:sans-serif;letter-spacing:0px;word-spacing:0px;fill:#000000;fill-opacity:1;stroke:none"><flowRegion
         id="flowRegion72"><rect
           id="rect74"
           width="62.857143"
           height="97.14286"
           x="294.28571"
           y="316.80539" /></flowRegion><flowPara
         id="flowPara76" /></flowRoot>    <text
       xml:space="preserve"
       style="font-style:normal;font-variant:normal;font-weight:normal;font-stretch:extra-condensed;font-size:25.39999962px;line-height:1.25;font-family:Algerian;-inkscape-font-specification:'Algerian, Extra-Condensed';font-variant-ligatures:normal;font-variant-caps:normal;font-variant-numeric:normal;font-feature-settings:normal;text-align:start;letter-spacing:0px;word-spacing:0px;writing-mode:lr-tb;text-anchor:start;fill:#000000;fill-opacity:1;stroke:none;stroke-width:0.26458332"
       x="138.44562"
       y="1113.2411"
       id="text919"><tspan
         sodipodi:role="line"
         id="tspan917"
         x="138.44562"
         y="1136.707"
         style="fill:#225500;stroke-width:0.26458332" /></text>
    <text
       xml:space="preserve"
       style="font-style:normal;font-variant:normal;font-weight:normal;font-stretch:extra-condensed;font-size:25.39999962px;line-height:1.25;font-family:Algerian;-inkscape-font-specification:'Algerian, Extra-Condensed';font-variant-ligatures:normal;font-variant-caps:normal;font-variant-numeric:normal;font-feature-settings:normal;text-align:start;letter-spacing:0px;word-spacing:0px;writing-mode:lr-tb;text-anchor:start;fill:#000000;fill-opacity:1;stroke:none;stroke-width:0.26458332"
       x="144.86008"
       y="1139.4336"
       id="text923"><tspan
         sodipodi:role="line"
         id="tspan921"
         x="144.86008"
         y="1162.8995"
         style="stroke-width:0.26458332" /></text>
    <text
       id="text1147"
       y="1059.2527"
       x="-316.98166"
       style="font-style:normal;font-variant:normal;font-weight:normal;font-stretch:extra-condensed;font-size:25.39999962px;line-height:1.25;font-family:Algerian;-inkscape-font-specification:'Algerian, Extra-Condensed';font-variant-ligatures:normal;font-variant-caps:normal;font-variant-numeric:normal;font-feature-settings:normal;text-align:start;letter-spacing:0px;word-spacing:0px;writing-mode:lr-tb;text-anchor:start;fill:#000000;fill-opacity:1;stroke:none;stroke-width:0.26458332"
       xml:space="preserve"><tspan
         style="stroke-width:0.26458332"
         y="1082.7186"
         x="-316.98166"
         id="tspan1145"
         sodipodi:role="line" /></text>
    <g
       id="g1294"
       transform="matrix(0.85517221,0,0,0.79973351,28.61214,11.775773)">
      <ellipse
         style="opacity:1;fill:#ff6600;fill-opacity:1;fill-rule:nonzero;stroke:#ff6600;stroke-width:1.16658771;stroke-linecap:round;stroke-linejoin:round;stroke-miterlimit:4;stroke-dasharray:none;stroke-opacity:1;paint-order:fill markers stroke"
         id="path939"
         cx="40.050632"
         cy="126.90967"
         rx="35.614532"
         ry="33.529728" />
      <path
         style="fill:#008000;stroke:#000000;stroke-width:0;stroke-linecap:butt;stroke-linejoin:miter;stroke-miterlimit:4;stroke-dasharray:none;stroke-opacity:1"
         d="m 37.435784,92.42134 c 0.05052,-0.247923 0.110705,-0.493133 0.151555,-0.7437 0.03465,-0.212654 0,-0.71817 0,-0.929642 v -1.673272 -0.557757 c 0,-0.06191 -0.03572,-0.142118 0,-0.185943 0.03572,-0.04382 0.128958,0.05565 0.151555,0 0.04519,-0.110814 0,-0.247853 0,-0.371815 0,-0.222254 -0.03295,-0.994196 0,-1.115512 0.35445,-0.943485 0.469016,-1.998132 0.757768,-2.97473 0.126299,-0.464821 -0.0842,-0.516436 0,-0.929642 0.02739,-0.134396 0.101037,-0.247853 0.151555,-0.371815 0,-0.185942 -0.02971,-0.375432 0,-0.557757 0.02217,-0.135926 0.124161,-0.237419 0.151555,-0.371885 0.0245,-0.120205 -0.0245,-0.25154 0,-0.371815 0.05478,-0.268861 0.258806,-0.471916 0.30311,-0.743699 0.04956,-0.303852 -0.06126,-0.62899 0,-0.929573 0.07524,-0.369241 0.379423,-0.746343 0.454664,-1.115584 0.0245,-0.120205 0,-0.247854 0,-0.371815 0,-0.06191 -0.02257,-0.130501 0,-0.185873 0.03193,-0.0784 0.101037,-0.123962 0.151555,-0.185942 0,-0.123962 -0.03198,-0.254254 0,-0.371885 0.02257,-0.08313 0.128964,-0.102745 0.151555,-0.185873 0.03193,-0.117631 0,-0.247923 0,-0.371884 0,-0.3154 -0.05671,-0.674137 0.151555,-0.929573 0.03572,-0.04382 0.115831,0.04382 0.151555,0 0.02614,-0.032 -0.0211,-0.826062 0,-0.929642 0.02739,-0.134396 0.109599,-0.243123 0.151554,-0.371815 0.312302,-0.25154 0.07009,-0.629825 0.151555,-0.929572 0.02257,-0.0832 0.128964,-0.102815 0.151555,-0.185943 0.03193,-0.117631 -0.0245,-0.25161 0,-0.371884 0.02739,-0.134396 0.115831,-0.240341 0.151555,-0.371815 0.01599,-0.05913 -0.01599,-0.127092 0,-0.185943 0.03572,-0.131405 0.124155,-0.237349 0.151555,-0.371815 0.04758,-0.233454 -0.04758,-0.510246 0,-0.7437 0.02739,-0.134396 0.115831,-0.24034 0.151555,-0.371815 0.01599,-0.05843 -0.02263,-0.1305 0,-0.185942 0.03192,-0.0784 0.128958,-0.102745 0.151554,-0.185942 0.03193,-0.117562 -0.03192,-0.254254 0,-0.371815 0.04519,-0.166326 0.239204,-0.21502 0.303104,-0.371815 0.02263,-0.05565 -0.01599,-0.127162 0,-0.185943 0.03572,-0.131474 0.101043,-0.247923 0.151555,-0.371815 0.05052,-0.123961 0.0889,-0.256549 0.151555,-0.371884 0.03964,-0.0729 0.119607,-0.107545 0.151555,-0.185943 0.02257,-0.05565 -0.02257,-0.130431 0,-0.185872 0.03198,-0.0784 0.119607,-0.107545 0.151555,-0.185943 0.02263,-0.05565 0,-0.123961 0,-0.185942 0.05052,-0.06191 0.119607,-0.107475 0.151555,-0.185873 0.02257,-0.05565 -0.03572,-0.142117 0,-0.185942 0.03572,-0.04382 0.115836,0.04382 0.151554,0 0.372296,-0.06609 0.06294,-0.394702 0.151555,-0.557758 0.07926,-0.145874 0.239209,-0.215089 0.30311,-0.371815 0.04519,-0.110883 -0.04519,-0.261001 0,-0.371884 0.0639,-0.156796 0.217378,-0.231576 0.30311,-0.371815 0.06778,-0.110884 0.0889,-0.256549 0.151555,-0.371885 0.03964,-0.0729 0.111923,-0.112971 0.151554,-0.185873 0.264846,-0.487359 0.05665,-0.324929 0.30311,-0.929642 0.09093,-0.223089 0.363727,-0.334668 0.454665,-0.557757 0.04519,-0.110884 -0.07144,-0.284166 0,-0.371815 0.07144,-0.08765 0.231661,0.08765 0.303104,0 0.07145,-0.08765 -0.05602,-0.268723 0,-0.371885 0.06266,-0.115266 0.209121,-0.109005 0.303115,-0.185942 0.05944,-0.04869 0.119602,-0.107475 0.151549,-0.185873 0.02257,-0.05565 -0.04519,-0.158187 0,-0.185942 0.09037,-0.05565 0.20509,0.02991 0.30311,0 0.731849,-0.224411 -0.0075,-0.08835 0.454664,-0.371815 0.04519,-0.02783 0.106373,0.02782 0.151555,0 0.0639,-0.03896 0.08765,-0.146779 0.151555,-0.185943 0.04519,-0.02782 0.101037,0 0.151555,0 0.05052,-0.06191 0.08765,-0.146708 0.151555,-0.185942 0.04519,-0.02782 0.115831,0.04383 0.151555,0 0.03572,-0.04382 -0.04519,-0.158187 0,-0.185873 0.09037,-0.05565 0.212739,0.05565 0.303109,0 0.04519,-0.02782 -0.03572,-0.142117 0,-0.185942 0.03572,-0.04382 0.106367,0.02782 0.151555,0 0.502643,-0.616608 -0.14289,0.08765 0.30311,-0.185942 0.0639,-0.03896 0.08765,-0.146709 0.151555,-0.185873 0.04519,-0.02782 0.11583,0.04382 0.151549,0 0.03572,-0.04382 -0.03572,-0.142118 0,-0.185942 0.03572,-0.04382 0.106372,0.02782 0.151555,0 0.127807,-0.0784 0.175308,-0.293418 0.303109,-0.371815 0.04519,-0.02783 0.101037,0 0.151555,0 0.101037,0 0.20509,0.02991 0.30311,0 1.020833,-0.313104 0.0023,0 0.30311,-0.371885 0.03572,-0.04382 0.106372,0.02782 0.151554,0 0.127802,-0.0784 0.167557,-0.316373 0.30311,-0.371815 0.09585,-0.03896 0.202073,0 0.30311,0 0.101036,-0.06191 0.195943,-0.142118 0.303109,-0.185943 0.09585,-0.03896 0.21274,0.05565 0.30311,0 0.0639,-0.03896 0.08765,-0.146708 0.151555,-0.185942 0.08222,-0.05009 0.564745,0.05078 0.606219,0 0.03572,-0.04383 -0.04519,-0.158186 0,-0.185873 0.09036,-0.05565 0.20509,0.02991 0.303104,0 0.109594,-0.03339 0.195944,-0.142117 0.30311,-0.185942 0.161047,-0.06609 0.445178,0.06609 0.606219,0 0.06778,-0.02782 0.101037,-0.123961 0.151555,-0.185942 0.151555,-0.06191 0.298012,-0.147474 0.454665,-0.185873 0.09907,-0.02435 0.202073,0 0.303109,0 h 0.90933 0.151549 c 0.05052,0 0.106372,0.02782 0.151555,0 0.0639,-0.03896 0.08765,-0.146778 0.15156,-0.185942 0.04831,-0.02991 0.622324,0 0.757769,0 h 1.970207 1.363993 0.30311 c 0.05052,0 0.106366,-0.02783 0.151554,0 0.127802,0.0784 0.175309,0.293417 0.30311,0.371815 0.04519,0.02782 0.106367,-0.02782 0.151555,0 0.0639,0.03896 0.08765,0.146778 0.151555,0.185942 0.142884,0.08765 0.326863,0.06817 0.454664,0.185942 0.09037,0.08313 0.07167,0.273801 0.151555,0.371815 0.07988,0.09801 0.206241,0.114641 0.30311,0.185943 0.156187,0.114988 0.308944,0.237767 0.454659,0.371815 0.05716,0.05287 0.101036,0.123961 0.151555,0.185942 0.101036,0.06191 0.209121,0.109075 0.303109,0.185943 0.05944,0.04869 0.08765,0.146708 0.151555,0.185872 0.121246,0.07436 0.333418,-0.07436 0.454665,0 0.04519,0.02783 0,0.123962 0,0.185943 0.05052,0.06191 0.08378,0.158186 0.151554,0.185942 0.09585,0.03896 0.202074,0 0.30311,0 0.05052,0 0.106367,-0.02782 0.151555,0 0.0639,0.03896 0.101037,0.123892 0.151555,0.185873 0.151555,0.185942 0.30311,0.371884 0.454664,0.557757 0.05052,0.06191 0.08378,0.158256 0.151555,0.185942 0.09585,0.03896 0.231662,-0.08765 0.303104,0 0.07145,0.08765 -0.07144,0.284235 0,0.371885 0.07145,0.08765 0.212745,-0.05565 0.30311,0 0.04519,0.02782 -0.03572,0.142048 0,0.185873 0.260394,0.319434 0.462456,0.01878 0.606219,0.371815 0.02257,0.05565 0,0.123961 0,0.185942 v 0.185942 1.301458 1.673272 0.371884 c 0,0.185873 0.03674,0.37738 0,0.557688 -0.01735,0.08508 -0.119601,0.107545 -0.151555,0.185942 -0.02257,0.05565 0,0.123962 0,0.185943 0,0.123961 0.03193,0.254253 0,0.371815 -0.02257,0.0832 -0.119601,0.107545 -0.151554,0.185942 -0.02257,0.05565 0,0.123962 0,0.185943 0,0.185872 0.03674,0.37738 0,0.557757 -0.01735,0.08501 -0.119602,0.107545 -0.151555,0.185942 -0.02257,0.05565 0,0.123892 0,0.185873 v 0.929642 c 0,0.123892 0.0245,0.25161 0,0.371815 -0.05478,0.268862 -0.231662,0.480751 -0.30311,0.7437 -0.07578,0.278878 0.151555,0.185942 0,0.557757 -0.02257,0.05565 -0.128958,-0.05565 -0.151555,0 -0.06407,0.157213 0.05398,0.7309 0,0.929573 -0.365921,1.346742 0.04372,-0.29307 -0.303104,0.557827 -0.02262,0.05565 0.01599,0.127091 0,0.185872 -0.03572,0.131475 -0.115836,0.240411 -0.151555,0.371885 -0.03476,0.127857 0.04468,0.448056 0,0.557757 -0.03198,0.0784 -0.119607,0.107475 -0.151554,0.185873 -0.06062,0.148796 0.06062,0.409031 0,0.557758 -0.0639,0.156795 -0.23921,0.215089 -0.30311,0.371884 -0.186638,0.457934 0.439921,-0.167856 -0.151555,0.557758 -0.03572,0.04382 -0.115831,-0.04382 -0.151555,0 -0.07144,0.08765 0.04519,0.261 0,0.371815 -0.03198,0.0784 -0.119602,0.107544 -0.151555,0.185942 -0.02257,0.05565 0.02257,0.1305 0,0.185942 -0.0639,0.156796 -0.239209,0.21502 -0.303109,0.371815 -0.02257,0.05565 0.02257,0.130501 0,0.185943 -0.03193,0.0784 -0.119602,0.107544 -0.151555,0.185942 -0.02257,0.05565 0.02257,0.130431 0,0.185873 -0.315369,0.773751 0.01043,-0.198742 -0.30311,0.185942 -0.03572,0.04382 0.02257,0.1305 0,0.185873 -0.03193,0.07847 -0.119602,0.107544 -0.151555,0.185942 -0.02257,0.05565 0.03572,0.142118 0,0.185942 -0.07987,0.09802 -0.223229,0.08793 -0.303109,0.185943 -0.03572,0.04382 0.02257,0.1305 0,0.185942 -0.0639,0.156726 -0.23921,0.21502 -0.30311,0.371815 -0.04519,0.110814 0.07145,0.284166 0,0.371815 -0.184591,0.226428 -0.338601,0.08709 -0.454659,0.371885 -0.02263,0.05565 0.03572,0.142048 0,0.185873 -0.03572,0.04382 -0.115836,-0.04382 -0.151555,0 -0.03572,0.04382 0.02257,0.1305 0,0.185942 -0.03198,0.0784 -0.119607,0.107545 -0.151555,0.185942 -0.02257,0.05565 0.03572,0.142048 0,0.185873 -0.03572,0.04382 -0.115836,-0.04382 -0.151555,0 -0.03572,0.04382 0.03572,0.142117 0,0.185942 -0.03572,0.04383 -0.115836,-0.04382 -0.151554,0 -0.591476,0.725614 0.0351,0.09982 -0.151555,0.557758 -0.0639,0.156795 -0.239209,0.215089 -0.30311,0.371884 -0.02257,0.05565 0.03572,0.142048 0,0.185873 -0.03572,0.04382 -0.115831,-0.04382 -0.151555,0 -0.03572,0.04382 0.03572,0.142118 0,0.185942 -0.313571,0.384685 0.01225,-0.587878 -0.303109,0.185943 -0.02257,0.05565 0.02257,0.130431 0,0.185872 -0.06965,0.170917 -0.567887,0.602626 -0.60622,0.7437 -0.03193,0.117562 0.07144,0.284166 0,0.371815 -0.07144,0.08765 -0.207255,-0.03895 -0.303109,0 -0.102624,0.04174 -0.33889,0.486803 -0.454659,0.557827 -0.04519,0.02783 -0.115836,-0.04382 -0.151555,0 -0.03572,0.04382 0.03572,0.142048 0,0.185873 -0.03572,0.04382 -0.106372,-0.02782 -0.15156,0 -0.127801,0.0784 -0.175303,0.293487 -0.303104,0.371885 -0.04519,0.02782 -0.101037,0 -0.151555,0 -0.05052,0.06191 -0.08765,0.146708 -0.151555,0.185872 -0.04519,0.02783 -0.106372,-0.02783 -0.151555,0 -0.0639,0.03896 -0.119607,0.107545 -0.151554,0.185943 -0.02257,0.05565 0.04519,0.158186 0,0.185942 -0.09037,0.05565 -0.207256,-0.03896 -0.30311,0 -0.06778,0.02783 -0.101037,0.123892 -0.151555,0.185873 -0.05052,0.06191 -0.119602,0.107544 -0.151555,0.185942 -0.02257,0.05565 0.03572,0.142118 0,0.185942 -0.03572,0.04383 -0.106372,-0.02782 -0.151555,0 -0.0639,0.03896 -0.08765,0.146709 -0.151555,0.185873 -0.04519,0.02783 -0.106366,-0.02782 -0.151554,0 -0.0639,0.03896 -0.08765,0.146778 -0.151555,0.185942 -0.04519,0.02783 -0.115831,-0.04382 -0.151555,0 -0.03572,0.04382 0.03572,0.142118 0,0.185943 -0.03572,0.04382 -0.106367,-0.02783 -0.151555,0 -0.0639,0.03896 -0.08765,0.146706 -0.151555,0.18594 -0.37327,0.228932 0.136818,-0.539669 -0.454664,0.185873 -0.03572,0.04382 0.04519,0.158256 0,0.185942 -0.09036,0.05565 -0.207256,-0.03896 -0.303104,0 -0.135559,0.05565 -0.175309,0.293487 -0.30311,0.371815 -0.08038,0.04939 -0.222725,-0.04939 -0.30311,0 -0.0639,0.03896 -0.08765,0.146778 -0.151555,0.185942 -0.121246,0.07436 -0.333418,-0.07436 -0.454664,0 -0.0639,0.03896 -0.08765,0.146709 -0.151555,0.185943 -0.09037,0.05565 -0.207256,-0.03896 -0.30311,0 -0.107166,0.04382 -0.202073,0.123961 -0.303109,0.185872 -0.101037,0.06191 -0.22323,0.088 -0.30311,0.185943 -0.03572,0.04382 0.03572,0.142117 0,0.185942 -0.03096,0.03826 -0.394569,-0.03687 -0.454664,0 -0.0639,0.03896 -0.08765,0.146709 -0.15155,0.185942 -0.0601,0.03687 -0.423681,-0.03826 -0.454664,0 -0.03572,0.04382 0.04519,0.158187 0,0.185873 -0.09037,0.05565 -0.20509,-0.02991 -0.30311,0 -0.109593,0.03339 -0.195943,0.142118 -0.30311,0.185943 -0.104246,0.04243 -0.365246,-0.05495 -0.454664,0 -0.0639,0.03896 -0.08765,0.146708 -0.151555,0.185942 -0.104683,0.064 -0.704574,-0.06539 -0.757774,0 -0.313572,0.384684 0.479184,-0.0153 -0.151555,0.371815 -0.04519,0.02782 -0.101037,0 -0.151555,0 -0.107421,0 -0.87014,-0.02435 -0.909323,0 -0.0639,0.03896 -0.08765,0.146709 -0.151555,0.185942 -0.09037,0.05565 -0.207256,-0.03896 -0.30311,0 -0.107166,0.04382 -0.193522,0.152274 -0.303109,0.185943 -0.09802,0.02991 -0.207256,-0.03896 -0.30311,0 -0.06778,0.02783 -0.08765,0.146708 -0.151555,0.185872 -0.09037,0.05565 -0.212739,-0.05565 -0.30311,0 -0.0639,0.03896 -0.08765,0.146709 -0.151554,0.185943 -0.121241,0.07436 -0.333419,-0.07436 -0.454665,0 -0.0639,0.03895 -0.08765,0.146708 -0.151555,0.185872 27.697797,-13.961045 26.760756,-13.193276 -0.454664,0 -0.06777,0.02783 -0.08765,0.146779 -0.15155,0.185943 -0.03986,0.02435 -0.526968,0 -0.606219,0 h -0.909329 c -0.06826,0 -0.408541,-0.02852 -0.454665,0 -0.0639,0.03896 -0.08765,0.146778 -0.151554,0.185942 -0.104683,0.064 -0.704574,-0.06539 -0.757775,0 -0.313571,0.384684 0.479184,-0.0153 -0.151549,0.371815 -0.09203,0.05635 -0.817303,-0.05635 -0.909329,0 -0.0639,0.03896 -0.08378,0.158256 -0.151555,0.185942 -0.143775,0.05913 -0.310889,-0.05843 -0.454664,0 -0.107167,0.04382 -0.193522,0.152274 -0.30311,0.185943 -0.09802,0.02991 -0.212739,-0.05565 -0.30311,0 -0.04519,0.02782 0.03572,0.142048 0,0.185872 -0.03572,0.04382 -0.101036,0 -0.151554,0 h -0.151555"
         id="path1127"
         inkscape:connector-curvature="0"
         sodipodi:nodetypes="ccscsscsccccccccccsccccsccccccccccscccccccccccccscccccccccscccccccccccsccsccccsccscccccccccccccccscsccsccsccccccccccccccscscccccccscccsccsccsccssccccccccccccccccccccccccccccccscccscscccssccccscccsccccccccccsccccsscccccccccccsccccccccccccsccccccccccccsscccccccccssc" />
      <path
         style="fill:none;stroke:#000000;stroke-width:0.28026876px;stroke-linecap:butt;stroke-linejoin:miter;stroke-opacity:1"
         d="M 91.687694,113.16222 H 89.630592"
         id="path1155"
         inkscape:connector-curvature="0" />
      <text
         xml:space="preserve"
         style="font-style:normal;font-variant:normal;font-weight:normal;font-stretch:normal;font-size:26.90580177px;line-height:1.25;font-family:Algerian;-inkscape-font-specification:Algerian;font-variant-ligatures:normal;font-variant-caps:normal;font-variant-numeric:normal;font-feature-settings:normal;text-align:start;letter-spacing:0px;word-spacing:0px;writing-mode:lr-tb;text-anchor:start;fill:#008000;fill-opacity:1;stroke:none;stroke-width:10.59283543;stroke-miterlimit:4;stroke-dasharray:none"
         x="77.290001"
         y="129.06923"
         id="text1163"
         transform="scale(1.0379961,0.9633948)"><tspan
           sodipodi:role="line"
           id="tspan1161"
           x="77.290001"
           y="129.06923"
           style="font-style:normal;font-variant:normal;font-weight:normal;font-stretch:normal;font-family:Algerian;-inkscape-font-specification:Algerian;fill:#008000;fill-opacity:1;stroke-width:10.59283543;stroke-miterlimit:4;stroke-dasharray:none">PEACH</tspan></text>
      <text
         xml:space="preserve"
         style="font-style:normal;font-variant:normal;font-weight:normal;font-stretch:normal;font-size:26.90580177px;line-height:1.25;font-family:Algerian;-inkscape-font-specification:Algerian;font-variant-ligatures:normal;font-variant-caps:normal;font-variant-numeric:normal;font-feature-settings:normal;text-align:start;letter-spacing:0px;word-spacing:0px;writing-mode:lr-tb;text-anchor:start;fill:#000000;fill-opacity:0.98989898;stroke:#1a0a00;stroke-width:0.28026876;stroke-opacity:1"
         x="75.874413"
         y="157.0976"
         id="text1167"
         transform="scale(1.0379961,0.9633948)"><tspan
           sodipodi:role="line"
           id="tspan1165"
           x="75.874413"
           y="157.0976"
           style="font-style:normal;font-variant:normal;font-weight:normal;font-stretch:normal;font-family:Algerian;-inkscape-font-specification:Algerian;fill:#000000;fill-opacity:0.98989898;stroke:#1a0a00;stroke-width:0.28026876;stroke-opacity:1">VINEGAR</tspan></text>
      <path
         transform="matrix(0.37057065,0,0,0.42540056,135.77338,-363.78629)"
         sodipodi:type="star"
         style="opacity:1;fill:#ffffff;fill-opacity:1;fill-rule:nonzero;stroke:#ff6600;stroke-width:0;stroke-linecap:round;stroke-linejoin:round;stroke-miterlimit:4;stroke-dasharray:none;stroke-opacity:1;paint-order:fill markers stroke"
         id="path1181"
         sodipodi:sides="5"
         sodipodi:cx="-198.51118"
         sodipodi:cy="1156.731"
         sodipodi:r1="9.8889723"
         sodipodi:r2="4.9658899"
         sodipodi:arg1="-0.33029735"
         sodipodi:arg2="0.2586773"
         inkscape:flatsided="false"
         inkscape:rounded="0"
         inkscape:randomized="0"
         d="m -189.15675,1153.5237 -4.55376,4.4775 1.14027,6.6353 -5.66557,-2.9473 -5.95811,3.1349 1.05226,-6.2991 -4.82259,-4.6977 6.3159,-0.9458 2.97758,-6.0382 2.85119,5.7145 z"
         inkscape:transform-center-x="0.018272042"
         inkscape:transform-center-y="-0.3817162" />
      <path
         transform="matrix(0.37057065,0,0,0.42540056,98.167059,-361.28823)"
         sodipodi:type="star"
         style="opacity:1;fill:#ffffff;fill-opacity:1;fill-rule:nonzero;stroke:#ff6600;stroke-width:0;stroke-linecap:round;stroke-linejoin:round;stroke-miterlimit:4;stroke-dasharray:none;stroke-opacity:1;paint-order:fill markers stroke"
         id="path1181-5"
         sodipodi:sides="5"
         sodipodi:cx="-213.83636"
         sodipodi:cy="1136.1625"
         sodipodi:r1="9.8889723"
         sodipodi:r2="4.9658904"
         sodipodi:arg1="-0.33029735"
         sodipodi:arg2="0.2586773"
         inkscape:flatsided="false"
         inkscape:rounded="0"
         inkscape:randomized="0"
         d="m -204.48193,1132.9552 -4.55376,4.4776 1.14027,6.6352 -5.66557,-2.9473 -5.95811,3.1349 1.05226,-6.299 -4.82259,-4.6978 6.3159,-0.9458 2.97758,-6.0382 2.85119,5.7145 z"
         inkscape:transform-center-x="0.018272014"
         inkscape:transform-center-y="-0.38171089" />
      <path
         transform="matrix(0.37057065,0,0,0.42540056,133.7904,-369.62974)"
         sodipodi:type="star"
         style="opacity:1;fill:#ffffff;fill-opacity:1;fill-rule:nonzero;stroke:#ff6600;stroke-width:0;stroke-linecap:round;stroke-linejoin:round;stroke-miterlimit:4;stroke-dasharray:none;stroke-opacity:1;paint-order:fill markers stroke"
         id="path1181-5-7"
         sodipodi:sides="5"
         sodipodi:cx="-229.07074"
         sodipodi:cy="1116.9191"
         sodipodi:r1="9.8889723"
         sodipodi:r2="4.9658909"
         sodipodi:arg1="-0.33029735"
         sodipodi:arg2="0.2586773"
         inkscape:flatsided="false"
         inkscape:rounded="0"
         inkscape:randomized="0"
         d="m -219.71631,1113.7118 -4.55376,4.4776 1.14027,6.6352 -5.66556,-2.9473 -5.95811,3.1349 1.05225,-6.2991 -4.82258,-4.6977 6.31589,-0.9458 2.97759,-6.0382 2.85118,5.7145 z"
         inkscape:transform-center-x="0.018268999"
         inkscape:transform-center-y="-0.38170801" />
      <path
         transform="matrix(0.56704772,0,0,0.69563157,1.4777908,17.39374)"
         sodipodi:type="star"
         style="opacity:1;fill:#008000;fill-opacity:1;fill-rule:nonzero;stroke:#ff6600;stroke-width:10;stroke-linecap:round;stroke-linejoin:round;stroke-miterlimit:4;stroke-dasharray:none;stroke-opacity:1;paint-order:fill markers stroke"
         id="path1228"
         sodipodi:sides="5"
         sodipodi:cx="202.12552"
         sodipodi:cy="102.24265"
         sodipodi:r1="6.6870818"
         sodipodi:r2="3.3435407"
         sodipodi:arg1="0.039978687"
         sodipodi:arg2="0.66829722"
         inkscape:flatsided="false"
         inkscape:rounded="0"
         inkscape:randomized="0"
         d="m 208.80726,102.50992 -4.05747,1.80456 -0.81369,4.36547 -2.97006,-3.30124 -4.40326,0.57514 2.22187,-3.84483 -1.90767,-4.01002 4.34325,0.925002 3.22425,-3.053469 0.46241,4.416517 z"
         inkscape:transform-center-x="-0.3172653"
         inkscape:transform-center-y="0.057443528" />
    </g>
    <flowRoot
       style="font-style:normal;font-variant:normal;font-weight:normal;font-stretch:extra-condensed;font-size:25.39999962px;line-height:1.25;font-family:Algerian;-inkscape-font-specification:'Algerian, Extra-Condensed';font-variant-ligatures:normal;font-variant-caps:normal;font-variant-numeric:normal;font-feature-settings:normal;text-align:start;letter-spacing:0px;word-spacing:0px;writing-mode:lr-tb;text-anchor:start;fill:#000000;fill-opacity:1;stroke:none;stroke-width:0.26458332"
       id="flowRoot1232"
       xml:space="preserve"><flowRegion
         id="flowRegion1234"
         style="stroke-width:0.26458332"><rect
           y="1090.2559"
           x="125.08214"
           height="58.264755"
           width="99.958801"
           id="rect1236"
           style="stroke-width:0.07000434" /></flowRegion><flowPara
         id="flowPara1238"
         style="stroke-width:0.26458332"></flowPara></flowRoot>    <flowRoot
       style="font-style:normal;font-variant:normal;font-weight:normal;font-stretch:extra-condensed;font-size:25.39999962px;line-height:1.25;font-family:Algerian;-inkscape-font-specification:'Algerian, Extra-Condensed';font-variant-ligatures:normal;font-variant-caps:normal;font-variant-numeric:normal;font-feature-settings:normal;text-align:start;letter-spacing:0px;word-spacing:0px;writing-mode:lr-tb;text-anchor:start;fill:#000000;fill-opacity:1;stroke:none;stroke-width:0.26458332"
       id="flowRoot1240"
       xml:space="preserve"><flowRegion
         id="flowRegion1242"
         style="stroke-width:0.26458332"><rect
           y="1081.7034"
           x="122.40945"
           height="32.60688"
           width="159.29263"
           id="rect1244"
           style="stroke-width:0.07000434" /></flowRegion><flowPara
         id="flowPara1246"
         style="stroke-width:0.26458332"></flowPara></flowRoot>    <flowRoot
       style="font-style:normal;font-variant:normal;font-weight:normal;font-stretch:extra-condensed;font-size:25.39999962px;line-height:1.25;font-family:Algerian;-inkscape-font-specification:'Algerian, Extra-Condensed';font-variant-ligatures:normal;font-variant-caps:normal;font-variant-numeric:normal;font-feature-settings:normal;text-align:start;letter-spacing:0px;word-spacing:0px;writing-mode:lr-tb;text-anchor:start;fill:#000000;fill-opacity:1;stroke:none;stroke-width:0.26458332"
       id="flowRoot1248"
       xml:space="preserve"><flowRegion
         id="flowRegion1250"
         style="stroke-width:0.26458332"><rect
           y="1096.6704"
           x="124.01306"
           height="47.573978"
           width="99.424263"
           id="rect1252"
           style="stroke-width:0.07000434" /></flowRegion><flowPara
         id="flowPara1254"
         style="stroke-width:0.26458332"></flowPara></flowRoot>  </g>
</svg>
